<svg xmlns="http://www.w3.org/2000/svg" viewBox="0 0 600 750" fill="none">
  <rect width="600" height="750" fill="#EEF4FA"/>
  <ellipse cx="300" cy="690" rx="200" ry="20" fill="#90BCE0" opacity="0.3"/>
  <path d="M 180 180 Q 160 130 200 90 Q 250 50 300 45 Q 350 50 400 90 Q 440 130 420 180 L 430 560 Q 440 620 400 650 Q 350 680 300 682 Q 250 680 200 650 Q 160 620 170 560 Z"
        fill="#7AABCF" stroke="#5E95BC" stroke-width="3"/>
  <path d="M 190 185 Q 172 138 208 100 Q 255 62 300 58 Q 345 62 392 100 Q 428 138 410 185 L 418 555 Q 427 608 392 636 Q 348 663 300 665 Q 252 663 208 636 Q 173 608 182 555 Z"
        fill="#9BBEDD"/>
  <ellipse cx="300" cy="380" rx="85" ry="105" fill="#7AABCF"/>
  <ellipse cx="300" cy="380" rx="72" ry="92" fill="#5E95BC" opacity="0.6"/>
  <ellipse cx="300" cy="380" rx="85" ry="105" fill="none" stroke="#5E95BC" stroke-width="18" opacity="0.7"/>
  <ellipse cx="300" cy="130" rx="52" ry="38" fill="#7AABCF"/>
  <ellipse cx="300" cy="130" rx="40" ry="27" fill="#5E95BC" opacity="0.5"/>
  <ellipse cx="300" cy="130" rx="52" ry="38" fill="none" stroke="#5E95BC" stroke-width="14" opacity="0.6"/>
  <path d="M 185 490 Q 300 480 415 490" stroke="#5E95BC" stroke-width="3" opacity="0.5" fill="none"/>
  <path d="M 182 510 Q 300 500 418 510" stroke="#5E95BC" stroke-width="3" opacity="0.5" fill="none"/>
  <path d="M 180 530 Q 300 520 420 530" stroke="#5E95BC" stroke-width="3" opacity="0.5" fill="none"/>
  <path d="M 179 550 Q 300 540 421 550" stroke="#5E95BC" stroke-width="3" opacity="0.5" fill="none"/>
  <path d="M 178 570 Q 300 560 422 570" stroke="#5E95BC" stroke-width="3" opacity="0.5" fill="none"/>
  <path d="M 178 590 Q 300 582 422 590" stroke="#5E95BC" stroke-width="2.5" opacity="0.4" fill="none"/>
  <ellipse cx="250" cy="300" rx="30" ry="60" fill="white" opacity="0.12" transform="rotate(-15 250 300)"/>
  <text x="300" y="640" font-family="Georgia, serif" font-size="22" font-style="italic" fill="#3D6D8E" text-anchor="middle" opacity="0.8">Cocoon</text>
  <g transform="translate(30, 200)">
    <circle cx="55" cy="0" r="48" fill="white" stroke="#B8D8F0" stroke-width="2"/>
    <text x="55" y="-8" font-size="22" text-anchor="middle" dominant-baseline="middle">&#x1F486;&#x200D;&#x2640;&#xFE0F;</text>
    <text x="55" y="12" font-family="Arial, sans-serif" font-size="10" fill="#3D6D8E" text-anchor="middle" font-weight="bold">Dos</text>
    <text x="55" y="24" font-family="Arial, sans-serif" font-size="10" fill="#3D6D8E" text-anchor="middle" font-weight="bold">soulagé</text>
  </g>
  <g transform="translate(30, 320)">
    <circle cx="55" cy="0" r="48" fill="white" stroke="#B8D8F0" stroke-width="2"/>
    <text x="55" y="-8" font-size="22" text-anchor="middle" dominant-baseline="middle">&#x1F319;</text>
    <text x="55" y="12" font-family="Arial, sans-serif" font-size="10" fill="#3D6D8E" text-anchor="middle" font-weight="bold">Sommeil</text>
    <text x="55" y="24" font-family="Arial, sans-serif" font-size="10" fill="#3D6D8E" text-anchor="middle" font-weight="bold">retrouvé</text>
  </g>
  <g transform="translate(30, 440)">
    <circle cx="55" cy="0" r="48" fill="white" stroke="#B8D8F0" stroke-width="2"/>
    <text x="55" y="-8" font-size="22" text-anchor="middle" dominant-baseline="middle">&#x1F931;</text>
    <text x="55" y="12" font-family="Arial, sans-serif" font-size="10" fill="#3D6D8E" text-anchor="middle" font-weight="bold">Bébé</text>
    <text x="55" y="24" font-family="Arial, sans-serif" font-size="10" fill="#3D6D8E" text-anchor="middle" font-weight="bold">serein</text>
  </g>
</svg>
